<?xml version="1.0" standalone="no"?>
<!DOCTYPE svg PUBLIC "-//W3C//DTD SVG 20010904//EN"
 "http://www.w3.org/TR/2001/REC-SVG-20010904/DTD/svg10.dtd">
<svg version="1.0" xmlns="http://www.w3.org/2000/svg"
 width="360.000000pt" height="240.000000pt" viewBox="0 0 360.000000 240.000000"
 preserveAspectRatio="xMidYMid meet">
<metadata>
Created by potrace 1.10, written by Peter Selinger 2001-2011
</metadata>
<g transform="translate(0.000000,240.000000) scale(0.050000,-0.050000)"
fill="#000000" stroke="none">
<path d="M0 2400 l0 -2400 3600 0 3600 0 0 2400 0 2400 -3600 0 -3600 0 0
-2400z m3886 1010 c24 -16 55 -30 69 -30 15 0 74 -30 131 -67 67 -42 140 -71
202 -78 60 -6 112 -26 138 -52 41 -42 41 -42 -45 1 -80 40 -88 40 -111 10 -13
-18 -30 -27 -38 -19 -8 7 4 -27 27 -76 45 -100 48 -155 14 -267 l-23 -77 -35
74 c-20 40 -25 67 -12 59 17 -10 20 20 12 117 -11 149 -29 194 -59 152 -13
-19 -16 -10 -10 29 14 86 -131 152 -153 69 -6 -21 -20 -33 -32 -26 -32 20 -25
71 9 71 41 0 38 39 -5 52 -19 6 -50 19 -68 28 -423 224 -1135 -134 -1328 -668
-24 -65 -49 -108 -57 -96 -74 120 278 589 539 719 104 51 159 70 339 113 85
21 452 -7 496 -38z m354 -57 c0 -37 -19 -52 -51 -40 -33 13 -15 67 23 67 15 0
28 -12 28 -27z m149 -351 c6 -10 0 -22 -13 -27 -19 -6 -16 -43 11 -156 58
-248 58 -253 5 -142 -70 144 -72 436 -3 325z m-975 -347 c9 -14 20 -79 26
-145 14 -162 124 -199 148 -50 20 130 98 109 112 -30 l10 -100 35 113 c60 191
154 217 156 43 l1 -96 31 60 c94 179 167 131 167 -109 0 -268 32 -307 130
-156 180 278 301 312 900 254 466 -46 725 -37 855 29 63 32 121 53 128 45 8
-7 -4 -13 -25 -14 -34 0 -33 -4 10 -40 26 -22 43 -44 38 -50 -6 -5 -22 4 -36
21 -14 16 -34 30 -46 30 -11 0 -5 -17 15 -39 70 -78 -280 -90 -939 -32 -685
60 -652 71 -925 -304 -111 -153 -216 -51 -214 208 1 91 -5 161 -13 156 -23
-14 -78 -191 -78 -251 0 -63 -22 -84 -67 -66 -24 9 -33 50 -37 175 l-6 163
-36 -110 c-20 -60 -41 -153 -48 -205 -22 -180 -97 -125 -120 88 -18 178 -125
179 -176 2 -105 -364 -335 -318 -382 77 l-13 110 -100 -50 c-156 -77 -348 -84
-845 -27 -524 59 -723 54 -871 -24 -57 -29 -108 -48 -114 -42 -7 6 1 11 17 12
19 0 16 10 -12 31 -28 22 -31 30 -10 27 45 -5 120 23 120 45 0 11 -16 14 -35
6 -60 -23 -113 -30 -94 -12 76 71 335 75 899 13 724 -79 971 -58 1049 87 13
25 42 42 71 42 57 0 64 -21 76 -234 17 -297 130 -320 202 -41 26 101 25 107
-21 162 -46 55 -61 152 -35 221 15 38 79 42 102 7z m-898 -445 c-4 -38 -2 -70
6 -70 7 0 19 -28 26 -63 69 -349 482 -714 878 -777 242 -38 561 30 677 145 35
36 58 54 50 40 -31 -52 21 -23 64 36 25 33 54 55 65 48 11 -7 31 -3 45 8 16
14 34 14 54 0 25 -18 25 -19 -1 -12 -28 8 -42 0 -118 -65 -402 -345 -1114
-298 -1488 98 -181 192 -316 496 -282 632 18 74 34 61 24 -20z m3004 -252 c0
-53 6 -61 40 -52 22 6 35 2 29 -8 -19 -30 -84 -20 -97 14 -19 48 -14 108 8
108 11 0 20 -28 20 -62z m220 -8 c0 -38 -9 -70 -20 -70 -11 0 -20 32 -20 70 0
39 9 70 20 70 11 0 20 -31 20 -70z m-380 -10 c0 -33 -9 -60 -20 -60 -11 0 -20
27 -20 60 0 33 9 60 20 60 11 0 20 -27 20 -60z"/>
<path d="M3349 2619 c-17 -28 7 -154 32 -169 11 -7 19 25 19 78 0 89 -25 133
-51 91z"/>
</g>
</svg>
